<?xml version="1.0" encoding="utf-8"?>
<!-- Generator: Adobe Illustrator 21.0.0, SVG Export Plug-In . SVG Version: 6.00 Build 0)  -->
<svg version="1.1" id="Layer_1" xmlns="http://www.w3.org/2000/svg" xmlns:xlink="http://www.w3.org/1999/xlink" x="0px" y="0px"
	 viewBox="0 0 150 150" style="enable-background:new 0 0 150 150;" xml:space="preserve">
<style type="text/css">
	.st0{display:none;fill:#EDD8BD;}
	.st1{fill:none;stroke:#FFFFFF;stroke-width:0.4;stroke-miterlimit:10;}
	.st2{fill:none;stroke:#144063;stroke-width:0.4;stroke-miterlimit:10;stroke-dasharray:4.0113,2.0056;}
	.st3{fill:none;stroke:#FFFFFF;stroke-miterlimit:10;}
	.st4{fill:none;stroke:#FFFFFF;stroke-width:0.1;stroke-miterlimit:10;}
	.st5{fill:#939393;}
	.st6{fill:#58636C;}
	.st7{fill:#4C4C4D;}
	.st8{fill:#666766;}
	.st9{fill:#083954;}
	.st10{fill:#808177;}
	.st11{fill:#A4696D;}
	.st12{fill:#9D9E87;}
	.st13{fill:#657483;}
	.st14{fill:#EECB5E;}
	.st15{opacity:0.2;}
	.st16{fill:#FAF5E1;}
	.st17{fill:#626362;}
	.st18{fill:#8FC17C;}
	.st19{fill:#FFFFFF;}
	.st20{fill:#434143;}
	.st21{fill:#97989A;}
	.st22{fill:#565556;}
	.st23{opacity:0.2;fill:#F9F9FA;}
	.st24{fill:#4A484A;}
	.st25{font-family:'MyriadPro-Regular';}
	.st26{font-size:10.7708px;}
	.st27{fill:none;stroke:#6F7478;stroke-width:2.1;stroke-miterlimit:10;stroke-dasharray:3.4995,1.0293;}
	.st28{fill:#757E85;}
	.st29{fill:none;stroke:#4A494A;stroke-width:0.7;stroke-miterlimit:10;}
	.st30{fill:none;stroke:#6F7478;stroke-width:2.1;stroke-miterlimit:10;stroke-dasharray:3.2236,0.9481;}
	.st31{fill:none;stroke:#4A494A;stroke-miterlimit:10;}
	.st32{fill:none;stroke:#6F7478;stroke-width:2.1;stroke-miterlimit:10;stroke-dasharray:3.4742,1.0218;}
	.st33{fill:#4B494B;stroke:#4A494A;stroke-miterlimit:10;}
	.st34{fill:#676366;}
</style>
<rect class="st0" width="150" height="150"/>
<path class="st1" d="M56.2,46.9"/>
<path class="st1" d="M113.2,77.5"/>
<g>
	<circle class="st2" cx="75.9" cy="77.8" r="28.7"/>
</g>
<path class="st3" d="M83.7,52.6"/>
<line class="st4" x1="87.5" y1="150.1" x2="83.7" y2="150.1"/>
<line class="st4" x1="83.7" y1="118.4" x2="85.6" y2="118.4"/>
<g>
	<g>
		<path class="st5" d="M101.3,62.6v27.7c0,0.7-0.7,1.4-1.4,1.4h-48c-0.5,0-1-0.3-1.2-0.7c-0.1-0.2-0.2-0.4-0.2-0.7V62.6
			c0-0.8,0.7-1.4,1.4-1.4h48c0.7,0,1.3,0.5,1.4,1.2C101.3,62.5,101.3,62.5,101.3,62.6z"/>
		<path id="ScreenColor" class="st6" d="M51.9,90.7h47.9c0.2,0,0.4-0.2,0.4-0.4V62.7c0-0.2-0.2-0.4-0.4-0.4H51.9
			c-0.2,0-0.4,0.2-0.4,0.4v27.6C51.5,90.5,51.7,90.7,51.9,90.7z"/>
		<path class="st5" d="M103.5,92v1.3c0,0,0,0,0,0H48.3c0,0,0,0,0,0V92c0-0.2,0.1-0.3,0.3-0.3h54.7C103.4,91.8,103.5,91.9,103.5,92z"
			/>
		<polygon id="BottomShade" class="st7" points="48.3,93.4 49.4,94 102.7,94 103.5,93.4 		"/>
		<path id="BottomHole" class="st8" d="M72.5,92.8h6.8c0.6,0,1-0.5,1-1l0,0h-8.9l0,0C71.5,92.3,71.9,92.8,72.5,92.8z"/>
		<rect x="54.9" y="58.6" class="st9" width="25.2" height="32.1"/>
		<rect x="54.9" y="58.6" class="st10" width="25.2" height="2"/>
		<path class="st11" d="M61.4,63.3h-3.7c-0.2,0-0.4-0.2-0.4-0.4v-0.1c0-0.2,0.2-0.4,0.4-0.4h3.7c0.2,0,0.4,0.2,0.4,0.4v0.1
			C61.8,63.1,61.6,63.3,61.4,63.3z"/>
		<path class="st12" d="M62.6,68.2H60c-0.2,0-0.4-0.2-0.4-0.4v-0.1c0-0.2,0.2-0.4,0.4-0.4h2.6c0.2,0,0.4,0.2,0.4,0.4v0.1
			C63,68,62.8,68.2,62.6,68.2z"/>
		<path class="st11" d="M62.8,71.5h-2.6c-0.2,0-0.4-0.2-0.4-0.4v-0.1c0-0.2,0.2-0.4,0.4-0.4h2.6c0.2,0,0.4,0.2,0.4,0.4v0.1
			C63.2,71.3,63,71.5,62.8,71.5z"/>
		<path class="st11" d="M61.4,64.8h-3.7c-0.2,0-0.4-0.2-0.4-0.4v-0.1c0-0.2,0.2-0.4,0.4-0.4h3.7c0.2,0,0.4,0.2,0.4,0.4v0.1
			C61.8,64.6,61.6,64.8,61.4,64.8z"/>
		<path class="st12" d="M71.4,66.6H60c-0.2,0-0.4-0.2-0.4-0.4v-0.1c0-0.2,0.2-0.4,0.4-0.4h11.4c0.2,0,0.4,0.2,0.4,0.4v0.1
			C71.8,66.5,71.7,66.6,71.4,66.6z"/>
		<path class="st13" d="M78.2,68.2H63.9c-0.2,0-0.4-0.2-0.4-0.4v-0.1c0-0.2,0.2-0.4,0.4-0.4h14.3c0.2,0,0.4,0.2,0.4,0.4v0.1
			C78.6,68,78.4,68.2,78.2,68.2z"/>
		<path class="st11" d="M74,70.1H60c-0.2,0-0.4-0.2-0.4-0.4v-0.1c0-0.2,0.2-0.4,0.4-0.4h14c0.2,0,0.4,0.2,0.4,0.4v0.1
			C74.4,69.9,74.2,70.1,74,70.1z"/>
		<path class="st12" d="M76.3,71.5h-12c-0.2,0-0.4-0.2-0.4-0.4v-0.1c0-0.2,0.2-0.4,0.4-0.4h12c0.2,0,0.4,0.2,0.4,0.4v0.1
			C76.7,71.3,76.5,71.5,76.3,71.5z"/>
		<path class="st13" d="M78.2,73.4H62c-0.2,0-0.4-0.2-0.4-0.4v-0.1c0-0.2,0.2-0.4,0.4-0.4h16.2c0.2,0,0.4,0.2,0.4,0.4v0.1
			C78.6,73.2,78.4,73.4,78.2,73.4z"/>
		<path class="st13" d="M76.3,75.1h-12c-0.2,0-0.4-0.2-0.4-0.4v-0.1c0-0.2,0.2-0.4,0.4-0.4h12c0.2,0,0.4,0.2,0.4,0.4v0.1
			C76.7,74.9,76.5,75.1,76.3,75.1z"/>
		<path class="st12" d="M73.3,76.7h-9c-0.2,0-0.4-0.2-0.4-0.4v-0.1c0-0.2,0.2-0.4,0.4-0.4h9c0.2,0,0.4,0.2,0.4,0.4v0.1
			C73.7,76.5,73.5,76.7,73.3,76.7z"/>
		<path class="st11" d="M61.4,78.3h-3.7c-0.2,0-0.4-0.2-0.4-0.4v-0.1c0-0.2,0.2-0.4,0.4-0.4h3.7c0.2,0,0.4,0.2,0.4,0.4v0.1
			C61.8,78.1,61.6,78.3,61.4,78.3z"/>
		<path class="st11" d="M63.1,80h-5.3c-0.2,0-0.4-0.2-0.4-0.4v-0.1c0-0.2,0.2-0.4,0.4-0.4h5.3c0.2,0,0.4,0.2,0.4,0.4v0.1
			C63.5,79.8,63.3,80,63.1,80z"/>
		<path class="st11" d="M73.2,83.6h-9.6c-0.2,0-0.4-0.2-0.4-0.4V83c0-0.2,0.2-0.4,0.4-0.4h9.6c0.2,0,0.4,0.2,0.4,0.4v0.1
			C73.6,83.4,73.4,83.6,73.2,83.6z"/>
		<path class="st12" d="M76.3,81.8H59.8c-0.2,0-0.4-0.2-0.4-0.4v-0.1c0-0.2,0.2-0.4,0.4-0.4h16.5c0.2,0,0.4,0.2,0.4,0.4v0.1
			C76.7,81.6,76.5,81.8,76.3,81.8z"/>
		<path class="st13" d="M62.2,83.6h-2.4c-0.2,0-0.4-0.2-0.4-0.4V83c0-0.2,0.2-0.4,0.4-0.4h2.4c0.2,0,0.4,0.2,0.4,0.4v0.1
			C62.6,83.4,62.4,83.6,62.2,83.6z"/>
		<path class="st13" d="M74.4,85.3H61.9c-0.2,0-0.4-0.2-0.4-0.4v-0.1c0-0.2,0.2-0.4,0.4-0.4h12.5c0.2,0,0.4,0.2,0.4,0.4v0.1
			C74.8,85.2,74.6,85.3,74.4,85.3z"/>
		<path class="st12" d="M74.4,87H63.9c-0.2,0-0.4-0.2-0.4-0.4v-0.1c0-0.2,0.2-0.4,0.4-0.4h10.5c0.2,0,0.4,0.2,0.4,0.4v0.1
			C74.8,86.8,74.6,87,74.4,87z"/>
		<path class="st11" d="M75,88.7H63.9c-0.2,0-0.4-0.2-0.4-0.4v-0.1c0-0.2,0.2-0.4,0.4-0.4H75c0.2,0,0.4,0.2,0.4,0.4v0.1
			C75.5,88.5,75.3,88.7,75,88.7z"/>
		<path class="st11" d="M71.6,90.1h-12c-0.2,0-0.4-0.2-0.4-0.4v-0.1c0-0.2,0.2-0.4,0.4-0.4h12c0.2,0,0.4,0.2,0.4,0.4v0.1
			C72,89.9,71.9,90.1,71.6,90.1z"/>
	</g>
	<g>
		<rect x="94.4" y="58.1" class="st14" width="3.1" height="32.5"/>
		<rect x="94.4" y="58.1" class="st15" width="1.5" height="32.5"/>
		<polyline class="st16" points="94.4,58.1 96,53.9 97.5,58.1 		"/>
		<polygon class="st17" points="96,53.9 95.3,55.7 96.6,55.7 		"/>
	</g>
	<g>
		<path class="st18" d="M86.5,50.6h5.1c0.3,0,0.5,0.2,0.5,0.5v39.4c0,0.1-0.1,0.2-0.2,0.2h-5.6c-0.1,0-0.2-0.1-0.2-0.2V51.1
			C86.1,50.8,86.3,50.6,86.5,50.6z"/>
		<circle class="st19" cx="88.8" cy="54" r="0.9"/>
		<line class="st4" x1="89.9" y1="57.7" x2="86.1" y2="57.7"/>
		<line class="st4" x1="89.9" y1="61.3" x2="86.1" y2="61.3"/>
		<line class="st4" x1="89.9" y1="65" x2="86.1" y2="65"/>
		<line class="st4" x1="89.9" y1="68.7" x2="86.1" y2="68.7"/>
		<line class="st4" x1="89.9" y1="72.3" x2="86.1" y2="72.3"/>
		<line class="st4" x1="89.9" y1="76" x2="86.1" y2="76"/>
		<line class="st4" x1="89.9" y1="83.5" x2="86.1" y2="83.5"/>
		<line class="st4" x1="89.9" y1="87.2" x2="86.1" y2="87.2"/>
		<line class="st4" x1="89.9" y1="79.7" x2="86.1" y2="79.7"/>
		<line class="st4" x1="86.1" y1="88.1" x2="88" y2="88.1"/>
		<line class="st4" x1="86.1" y1="89.1" x2="88" y2="89"/>
		<line class="st4" x1="86.1" y1="90" x2="88" y2="90"/>
		<line class="st4" x1="86.1" y1="58.6" x2="88" y2="58.6"/>
		<line class="st4" x1="86.1" y1="59.5" x2="88" y2="59.5"/>
		<line class="st4" x1="86.1" y1="60.4" x2="88" y2="60.4"/>
		<line class="st4" x1="86.1" y1="63.2" x2="88" y2="63.2"/>
		<line class="st4" x1="86.1" y1="64.1" x2="88" y2="64.1"/>
		<line class="st4" x1="86.1" y1="65.9" x2="88" y2="65.9"/>
		<line class="st4" x1="86.1" y1="66.8" x2="88" y2="66.8"/>
		<line class="st4" x1="86.1" y1="67.8" x2="88" y2="67.8"/>
		<line class="st4" x1="86.1" y1="69.6" x2="88" y2="69.6"/>
		<line class="st4" x1="86.1" y1="70.5" x2="88" y2="70.5"/>
		<line class="st4" x1="86.1" y1="71.4" x2="88" y2="71.4"/>
		<line class="st4" x1="86.1" y1="73.3" x2="88" y2="73.3"/>
		<line class="st4" x1="86.1" y1="74.2" x2="88" y2="74.2"/>
		<line class="st4" x1="86.1" y1="75.1" x2="88" y2="75.1"/>
		<line class="st4" x1="86.1" y1="76.9" x2="88" y2="76.9"/>
		<line class="st4" x1="86.1" y1="77.9" x2="88" y2="77.8"/>
		<line class="st4" x1="86.1" y1="78.8" x2="88" y2="78.8"/>
		<line class="st4" x1="86.1" y1="80.6" x2="88" y2="80.6"/>
		<line class="st4" x1="86.1" y1="81.6" x2="88" y2="81.6"/>
		<line class="st4" x1="86.1" y1="82.5" x2="88" y2="82.5"/>
		<line class="st4" x1="86.1" y1="84.4" x2="88" y2="84.4"/>
		<line class="st4" x1="86.1" y1="85.3" x2="88" y2="85.3"/>
		<line class="st4" x1="86.1" y1="86.2" x2="88" y2="86.2"/>
		<line class="st4" x1="86.1" y1="62.3" x2="88" y2="62.2"/>
	</g>
</g>
<g>
	<path class="st20" d="M114,86.6l-9.2-0.1c-0.2,0-0.3-0.2-0.3-0.3l0.2-17.7c0-0.2,0.2-0.3,0.3-0.3l9.2,0.1c0.2,0,0.3,0.2,0.3,0.3
		l-0.2,17.7C114.3,86.4,114.2,86.6,114,86.6z"/>
	<path class="st21" d="M104.9,85.1l9,0.1c0,0,0.1,0,0.1-0.1l0.2-15.8c0,0,0-0.1-0.1-0.1l-9-0.1c0,0-0.1,0-0.1,0.1L104.9,85.1
		C104.8,85,104.9,85.1,104.9,85.1z"/>
	
		<ellipse transform="matrix(1.370865e-02 -0.9999 0.9999 1.370865e-02 22.0083 194.0453)" class="st22" cx="109.4" cy="85.9" rx="0.4" ry="0.4"/>
	
		<rect x="108.9" y="68.7" transform="matrix(0.9999 1.370865e-02 -1.370865e-02 0.9999 0.9525 -1.4964)" class="st22" width="1.4" height="0.2"/>
	<polygon class="st23" points="105.1,69.2 114.2,69.2 104.8,85.1 	"/>
</g>
<g>
	<ellipse transform="matrix(0.9459 -0.3244 0.3244 0.9459 -23.2242 17.248)" class="st11" cx="40.1" cy="78.3" rx="8.1" ry="8.1"/>
	<text transform="matrix(0.8887 -0.3162 0.3352 0.9422 33.7295 83.4081)" class="st24 st25 st26">&lt;/&gt;</text>
</g>
<g>
	<g>
		<ellipse class="st27" cx="97.5" cy="104.3" rx="6.3" ry="6.7"/>
	</g>
	<circle class="st28" cx="97.5" cy="104.3" r="6.4"/>
	
		<ellipse transform="matrix(0.6907 -0.7231 0.7231 0.6907 -45.2561 102.7735)" class="st29" cx="97.5" cy="104.3" rx="2.8" ry="2.8"/>
</g>
<g>
	<g>
		<path class="st30" d="M80.1,106.9c-0.4,1.8,0.8,3.5,2.6,3.9c1.8,0.4,3.6-0.7,4-2.5s-0.8-3.5-2.6-3.9
			C82.3,104,80.5,105.1,80.1,106.9z"/>
	</g>
	<path class="st31" d="M82.9,110.1c1.5,0.2,2.9-0.7,3.1-2.1c0.3-1.4-0.7-2.7-2.2-3s-2.9,0.7-3.1,2.1S81.4,109.9,82.9,110.1z"/>
</g>
<g>
	<g>
		<ellipse transform="matrix(0.2091 -0.9779 0.9779 0.2091 3.1038 103.6656)" class="st32" cx="65.6" cy="49.9" rx="4.2" ry="4.4"/>
	</g>
	<path class="st33" d="M65,53.2c1.9,0.3,3.7-0.9,4-2.8c0.3-1.8-0.9-3.6-2.8-3.9c-1.9-0.3-3.7,0.9-4,2.8C61.8,51.2,63.1,52.9,65,53.2
		z"/>
	<ellipse transform="matrix(0.7517 -0.6595 0.6595 0.7517 -16.5214 55.5748)" class="st34" cx="65.5" cy="49.7" rx="1.6" ry="1.6"/>
</g>
</svg>
