<?xml version="1.0" encoding="utf-8"?>
<!-- Generator: Adobe Illustrator 21.0.0, SVG Export Plug-In . SVG Version: 6.00 Build 0)  -->
<svg version="1.1" id="Layer_1" xmlns="http://www.w3.org/2000/svg" xmlns:xlink="http://www.w3.org/1999/xlink" x="0px" y="0px"
	 viewBox="0 0 150 150" style="enable-background:new 0 0 150 150;" xml:space="preserve">
<style type="text/css">
	.st0{display:none;fill:#EDD8BD;}
	.st1{fill:none;stroke:#FFFFFF;stroke-width:0.1;stroke-miterlimit:10;}
	.st2{fill:none;stroke:#FFFFFF;stroke-width:0.4;stroke-miterlimit:10;}
	.st3{fill:none;stroke:#144063;stroke-width:0.4;stroke-miterlimit:10;stroke-dasharray:4.0462,2.0231;}
	.st4{fill:none;stroke:#FFFFFF;stroke-miterlimit:10;}
	.st5{fill:#939393;}
	.st6{fill:#58636C;}
	.st7{fill:#4C4C4D;}
	.st8{fill:#666766;}
	.st9{fill:#083954;}
	.st10{fill:#808177;}
	.st11{fill:#A4696D;}
	.st12{fill:#9D9E87;}
	.st13{fill:#657483;}
	.st14{fill:#EECB5E;}
	.st15{opacity:0.2;}
	.st16{fill:#FAF5E1;}
	.st17{fill:#626362;}
	.st18{fill:#8FC17C;}
	.st19{fill:#FFFFFF;}
	.st20{fill:#434143;}
	.st21{fill:#97989A;}
	.st22{fill:#565556;}
	.st23{opacity:0.2;fill:#F9F9FA;}
	.st24{fill:#4A484A;}
	.st25{font-family:'MyriadPro-Regular';}
	.st26{font-size:15.2103px;}
	.st27{fill:none;stroke:#6F7478;stroke-width:2.1;stroke-miterlimit:10;stroke-dasharray:3.4254,1.0075;}
	.st28{fill:#757E85;}
	.st29{fill:none;stroke:#4A494A;stroke-width:0.7;stroke-miterlimit:10;}
	.st30{fill:none;stroke:#6F7478;stroke-width:2.1;stroke-miterlimit:10;stroke-dasharray:3.2516,0.9564;}
	.st31{fill:none;stroke:#4A494A;stroke-miterlimit:10;}
	.st32{fill:none;stroke:#6F7478;stroke-width:2.1;stroke-miterlimit:10;stroke-dasharray:3.2708,0.962;}
	.st33{fill:#4B494B;stroke:#4A494A;stroke-miterlimit:10;}
	.st34{fill:#676366;}
</style>
<rect class="st0" width="150" height="150"/>
<line class="st1" x1="87.5" y1="150.1" x2="83.7" y2="150.1"/>
<path class="st2" d="M47.9,26.4"/>
<path class="st2" d="M128.3,69.7"/>
<g>
	<circle class="st3" cx="75.7" cy="70" r="40.6"/>
</g>
<path class="st4" d="M86.7,34.5"/>
<line class="st1" x1="86.7" y1="127.4" x2="89.4" y2="127.4"/>
<g>
	<g>
		<path class="st5" d="M111.6,48.5v39.2c0,1.1-0.9,1.9-2,1.9H41.8c-0.7,0-1.4-0.4-1.7-0.9c-0.2-0.3-0.3-0.6-0.3-1V48.5
			c0-1.1,0.9-1.9,2-1.9h67.7c1,0,1.9,0.7,2,1.7C111.6,48.4,111.6,48.5,111.6,48.5z"/>
		<path id="ScreenColor" class="st6" d="M41.7,88.2h68c0.2,0,0.4-0.2,0.4-0.4V48.5c0-0.2-0.2-0.4-0.4-0.4h-68
			c-0.2,0-0.4,0.2-0.4,0.4v39.3C41.3,88,41.5,88.2,41.7,88.2z"/>
		<path class="st5" d="M114.7,90.1V92c0,0,0,0,0,0h-78c0,0,0,0,0,0v-1.9c0-0.2,0.2-0.4,0.4-0.4h77.2
			C114.5,89.8,114.7,89.9,114.7,90.1z"/>
		<polygon id="BottomShade" class="st7" points="36.7,92.1 38.3,92.9 113.5,92.9 114.7,92.1 		"/>
		<path id="BottomHole" class="st8" d="M70.4,91.2h10.5c0.6,0,1-0.5,1-1v-0.4H69.4v0.4C69.4,90.7,69.9,91.2,70.4,91.2z"/>
		<rect x="46" y="42.9" class="st9" width="35.6" height="45.3"/>
		<rect x="46" y="42.9" class="st10" width="35.6" height="2.9"/>
		<path class="st11" d="M55.4,49.5h-5.5c-0.2,0-0.4-0.2-0.4-0.4v-0.5c0-0.2,0.2-0.4,0.4-0.4h5.5c0.2,0,0.4,0.2,0.4,0.4v0.5
			C55.8,49.3,55.6,49.5,55.4,49.5z"/>
		<path class="st12" d="M57.1,56.4h-4c-0.2,0-0.4-0.2-0.4-0.4v-0.5c0-0.2,0.2-0.4,0.4-0.4h4c0.2,0,0.4,0.2,0.4,0.4V56
			C57.5,56.3,57.3,56.4,57.1,56.4z"/>
		<path class="st11" d="M57.4,61.1h-4c-0.2,0-0.4-0.2-0.4-0.4v-0.5c0-0.2,0.2-0.4,0.4-0.4h4c0.2,0,0.4,0.2,0.4,0.4v0.5
			C57.8,60.9,57.6,61.1,57.4,61.1z"/>
		<path class="st11" d="M55.4,51.7h-5.5c-0.2,0-0.4-0.2-0.4-0.4v-0.5c0-0.2,0.2-0.4,0.4-0.4h5.5c0.2,0,0.4,0.2,0.4,0.4v0.5
			C55.8,51.5,55.6,51.7,55.4,51.7z"/>
		<path class="st12" d="M69.5,54.3H53c-0.2,0-0.4-0.2-0.4-0.4v-0.5c0-0.2,0.2-0.4,0.4-0.4h16.5c0.2,0,0.4,0.2,0.4,0.4v0.5
			C70,54.1,69.8,54.3,69.5,54.3z"/>
		<path class="st13" d="M79.1,56.4H58.6c-0.2,0-0.4-0.2-0.4-0.4v-0.5c0-0.2,0.2-0.4,0.4-0.4h20.5c0.2,0,0.4,0.2,0.4,0.4V56
			C79.6,56.3,79.4,56.4,79.1,56.4z"/>
		<path class="st11" d="M73.2,59.1H53c-0.2,0-0.4-0.2-0.4-0.4v-0.5c0-0.2,0.2-0.4,0.4-0.4h20.1c0.2,0,0.4,0.2,0.4,0.4v0.5
			C73.6,58.9,73.4,59.1,73.2,59.1z"/>
		<path class="st12" d="M76.5,61.1H59.1c-0.2,0-0.4-0.2-0.4-0.4v-0.5c0-0.2,0.2-0.4,0.4-0.4h17.3c0.2,0,0.4,0.2,0.4,0.4v0.5
			C76.9,60.9,76.7,61.1,76.5,61.1z"/>
		<path class="st13" d="M79.1,63.8H55.9c-0.2,0-0.4-0.2-0.4-0.4v-0.5c0-0.2,0.2-0.4,0.4-0.4h23.2c0.2,0,0.4,0.2,0.4,0.4v0.5
			C79.6,63.6,79.4,63.8,79.1,63.8z"/>
		<path class="st13" d="M76.5,66.2H59.1c-0.2,0-0.4-0.2-0.4-0.4v-0.5c0-0.2,0.2-0.4,0.4-0.4h17.3c0.2,0,0.4,0.2,0.4,0.4v0.5
			C76.9,66,76.7,66.2,76.5,66.2z"/>
		<path class="st12" d="M72.2,68.5H59.1c-0.2,0-0.4-0.2-0.4-0.4v-0.5c0-0.2,0.2-0.4,0.4-0.4h13.1c0.2,0,0.4,0.2,0.4,0.4v0.5
			C72.6,68.3,72.4,68.5,72.2,68.5z"/>
		<path class="st11" d="M55.4,70.7h-5.5c-0.2,0-0.4-0.2-0.4-0.4v-0.5c0-0.2,0.2-0.4,0.4-0.4h5.5c0.2,0,0.4,0.2,0.4,0.4v0.5
			C55.8,70.5,55.6,70.7,55.4,70.7z"/>
		<path class="st11" d="M57.7,73.2h-7.9c-0.2,0-0.4-0.2-0.4-0.4v-0.5c0-0.2,0.2-0.4,0.4-0.4h7.9c0.2,0,0.4,0.2,0.4,0.4v0.5
			C58.2,73,58,73.2,57.7,73.2z"/>
		<path class="st11" d="M72.1,78.2H58.2c-0.2,0-0.4-0.2-0.4-0.4v-0.5c0-0.2,0.2-0.4,0.4-0.4h13.9c0.2,0,0.4,0.2,0.4,0.4v0.5
			C72.5,78,72.3,78.2,72.1,78.2z"/>
		<path class="st12" d="M76.5,75.7H52.8c-0.2,0-0.4-0.2-0.4-0.4v-0.5c0-0.2,0.2-0.4,0.4-0.4h23.7c0.2,0,0.4,0.2,0.4,0.4v0.5
			C76.9,75.5,76.7,75.7,76.5,75.7z"/>
		<path class="st13" d="M56.5,78.2h-3.7c-0.2,0-0.4-0.2-0.4-0.4v-0.5c0-0.2,0.2-0.4,0.4-0.4h3.7c0.2,0,0.4,0.2,0.4,0.4v0.5
			C56.9,78,56.7,78.2,56.5,78.2z"/>
		<path class="st13" d="M73.8,80.7h-18c-0.2,0-0.4-0.2-0.4-0.4v-0.5c0-0.2,0.2-0.4,0.4-0.4h18c0.2,0,0.4,0.2,0.4,0.4v0.5
			C74.2,80.5,74,80.7,73.8,80.7z"/>
		<path class="st12" d="M73.8,83H58.6c-0.2,0-0.4-0.2-0.4-0.4v-0.5c0-0.2,0.2-0.4,0.4-0.4h15.2c0.2,0,0.4,0.2,0.4,0.4v0.5
			C74.2,82.8,74,83,73.8,83z"/>
		<path class="st11" d="M74.7,85.4H58.6c-0.2,0-0.4-0.2-0.4-0.4v-0.5c0-0.2,0.2-0.4,0.4-0.4h16.1c0.2,0,0.4,0.2,0.4,0.4V85
			C75.1,85.2,74.9,85.4,74.7,85.4z"/>
		<path class="st11" d="M69.8,87.4H52.6c-0.2,0-0.4-0.2-0.4-0.4v-0.5c0-0.2,0.2-0.4,0.4-0.4h17.3c0.2,0,0.4,0.2,0.4,0.4V87
			C70.3,87.2,70.1,87.4,69.8,87.4z"/>
	</g>
	<g>
		<rect x="101.9" y="42.3" class="st14" width="4.3" height="45.9"/>
		<rect x="101.9" y="42.3" class="st15" width="2.2" height="45.9"/>
		<polyline class="st16" points="101.9,42.3 104.1,36.3 106.2,42.3 		"/>
		<polygon class="st17" points="104.1,36.3 103.2,38.8 105,38.8 		"/>
	</g>
	<g>
		<path class="st18" d="M90.5,31.6H98c0.3,0,0.5,0.2,0.5,0.5v56c0,0.1-0.1,0.2-0.2,0.2h-8.1c-0.1,0-0.2-0.1-0.2-0.2v-56
			C90.1,31.8,90.3,31.6,90.5,31.6z"/>
		<circle class="st19" cx="94" cy="36.4" r="1.2"/>
		<line class="st1" x1="95.5" y1="41.6" x2="90.1" y2="41.6"/>
		<line class="st1" x1="95.5" y1="46.8" x2="90.1" y2="46.8"/>
		<line class="st1" x1="95.5" y1="52" x2="90.1" y2="52"/>
		<line class="st1" x1="95.5" y1="57.2" x2="90.1" y2="57.2"/>
		<line class="st1" x1="95.5" y1="62.3" x2="90.1" y2="62.3"/>
		<line class="st1" x1="95.5" y1="67.5" x2="90.1" y2="67.5"/>
		<line class="st1" x1="95.5" y1="78.1" x2="90.1" y2="78.1"/>
		<line class="st1" x1="95.5" y1="83.3" x2="90.1" y2="83.3"/>
		<line class="st1" x1="95.5" y1="72.7" x2="90.1" y2="72.7"/>
		<line class="st1" x1="90.1" y1="84.6" x2="92.8" y2="84.6"/>
		<line class="st1" x1="90.1" y1="85.9" x2="92.8" y2="85.9"/>
		<line class="st1" x1="90.1" y1="87.3" x2="92.8" y2="87.3"/>
		<line class="st1" x1="90.1" y1="42.9" x2="92.8" y2="42.9"/>
		<line class="st1" x1="90.1" y1="44.2" x2="92.8" y2="44.2"/>
		<line class="st1" x1="90.1" y1="45.5" x2="92.8" y2="45.5"/>
		<line class="st1" x1="90.1" y1="49.4" x2="92.8" y2="49.4"/>
		<line class="st1" x1="90.1" y1="50.7" x2="92.8" y2="50.7"/>
		<line class="st1" x1="90.1" y1="53.3" x2="92.8" y2="53.2"/>
		<line class="st1" x1="90.1" y1="54.6" x2="92.8" y2="54.5"/>
		<line class="st1" x1="90.1" y1="55.9" x2="92.8" y2="55.9"/>
		<line class="st1" x1="90.1" y1="58.5" x2="92.8" y2="58.4"/>
		<line class="st1" x1="90.1" y1="59.8" x2="92.8" y2="59.7"/>
		<line class="st1" x1="90.1" y1="61.1" x2="92.8" y2="61"/>
		<line class="st1" x1="90" y1="63.6" x2="92.8" y2="63.6"/>
		<line class="st1" x1="90.1" y1="64.9" x2="92.8" y2="64.9"/>
		<line class="st1" x1="90.1" y1="66.2" x2="92.8" y2="66.2"/>
		<line class="st1" x1="90.1" y1="68.8" x2="92.8" y2="68.8"/>
		<line class="st1" x1="90.1" y1="70.1" x2="92.8" y2="70.1"/>
		<line class="st1" x1="90.1" y1="71.4" x2="92.8" y2="71.4"/>
		<line class="st1" x1="90" y1="74" x2="92.8" y2="74"/>
		<line class="st1" x1="90.1" y1="75.4" x2="92.8" y2="75.3"/>
		<line class="st1" x1="90.1" y1="76.7" x2="92.8" y2="76.7"/>
		<line class="st1" x1="90.1" y1="79.4" x2="92.8" y2="79.4"/>
		<line class="st1" x1="90.1" y1="80.6" x2="92.8" y2="80.6"/>
		<line class="st1" x1="90.1" y1="81.9" x2="92.8" y2="81.9"/>
		<line class="st1" x1="90.1" y1="48.1" x2="92.8" y2="48.1"/>
	</g>
</g>
<g>
	<path class="st20" d="M127.7,83.8l-13.2-0.2c-0.2,0-0.3-0.2-0.3-0.3l0.3-25.3c0-0.2,0.2-0.3,0.3-0.3l13.2,0.2
		c0.2,0,0.3,0.2,0.3,0.3L128,83.5C128,83.6,127.8,83.8,127.7,83.8z"/>
	<path class="st21" d="M114.7,81.7l12.7,0.2c0,0,0.1,0,0.1-0.1l0.3-22.4c0,0,0-0.1-0.1-0.1L115,59.1c0,0-0.1,0-0.1,0.1L114.7,81.7
		C114.6,81.7,114.7,81.7,114.7,81.7z"/>
	
		<ellipse transform="matrix(1.370865e-02 -0.9999 0.9999 1.370865e-02 36.5706 202.6595)" class="st22" cx="121" cy="82.8" rx="0.6" ry="0.6"/>
	
		<rect x="120.4" y="58.5" transform="matrix(0.9999 1.370865e-02 -1.370865e-02 0.9999 0.8147 -1.6585)" class="st22" width="2" height="0.2"/>
	<polygon class="st23" points="115,59.2 127.8,59.3 114.6,81.7 	"/>
</g>
<g>
	
		<ellipse transform="matrix(0.9459 -0.3244 0.3244 0.9459 -21.9385 12.0518)" class="st11" cx="25.2" cy="71.8" rx="11.5" ry="11.5"/>
	<text transform="matrix(0.8887 -0.3162 0.3352 0.9422 16.1262 79.0001)" class="st24 st25 st26">&lt;/&gt;</text>
</g>
<g>
	<g>
		<ellipse class="st27" cx="103" cy="107.5" rx="8.9" ry="9.4"/>
	</g>
	<circle class="st28" cx="103" cy="107.5" r="9"/>
	<ellipse transform="matrix(0.6907 -0.7231 0.7231 0.6907 -45.9183 107.7288)" class="st29" cx="103" cy="107.5" rx="4" ry="4"/>
</g>
<g>
	<g>
		<path class="st30" d="M77.2,112.4c-0.5,2.5,1.1,4.9,3.7,5.5c2.6,0.5,5.1-1,5.7-3.5s-1.1-4.9-3.7-5.5
			C80.3,108.3,77.8,109.9,77.2,112.4z"/>
	</g>
	<path class="st31" d="M81.2,117c2.1,0.3,4.1-1,4.4-3c0.4-2-1-3.9-3.1-4.2c-2.1-0.3-4.1,1-4.4,3C77.7,114.7,79.1,116.6,81.2,117z"/>
</g>
<g>
	<g>
		<ellipse transform="matrix(0.2091 -0.9779 0.9779 0.2091 18.4333 84.105)" class="st32" cx="61.2" cy="30.7" rx="6" ry="6.1"/>
	</g>
	<path class="st33" d="M60.3,35.3c2.7,0.4,5.2-1.3,5.7-3.9s-1.3-5.1-4-5.5c-2.7-0.4-5.2,1.3-5.7,3.9C55.8,32.5,57.6,34.9,60.3,35.3z
		"/>
	<ellipse transform="matrix(0.7517 -0.6595 0.6595 0.7517 -4.8799 47.8295)" class="st34" cx="61.1" cy="30.4" rx="2.2" ry="2.2"/>
</g>
</svg>
